<svg width="156" height="36" viewBox="0 0 156 36" fill="none" xmlns="http://www.w3.org/2000/svg">
<path d="M28.0288 7.84961H32.4321L36.8354 24.2757H39.0473L43.8602 7.84961H48.2635L39.8461 35.8682H35.4427L37.8389 28.2696H33.6405L28.0288 7.84961Z" fill="white"/>
<path d="M49.2864 28.2696V0.230469H53.4849V10.4508H53.6897C54.1608 9.89771 54.7137 9.40617 55.3281 8.97603C56.7617 7.95199 58.3592 7.46043 60.1001 7.46043C62.8444 7.46043 65.1382 8.44354 66.961 10.4097C68.7838 12.376 69.7054 14.9362 69.7054 18.0699C69.7054 21.224 68.7838 23.7842 66.961 25.7299C65.1382 27.6961 62.8444 28.6792 60.1001 28.6792C58.3387 28.6792 56.7413 28.1877 55.3281 27.2046C54.6933 26.754 54.1402 26.2419 53.6897 25.689H53.4849V28.2901H49.2864V28.2696ZM55.0619 13.0314C53.9969 14.2193 53.4849 15.8988 53.4849 18.0494C53.4849 20.1999 54.0174 21.8794 55.0619 23.0673C56.1063 24.2553 57.5195 24.8492 59.2808 24.8492C61.1446 24.8492 62.6191 24.2553 63.6841 23.0878C64.7491 21.9204 65.2816 20.2409 65.2816 18.0494C65.2816 15.8579 64.7491 14.1783 63.6841 13.0109C62.6191 11.8434 61.1446 11.2495 59.2808 11.2495C57.5195 11.2495 56.1269 11.8434 55.0619 13.0314Z" fill="white"/>
<path d="M75.6667 26.7972C73.3161 25.1619 71.8528 22.8871 71.2993 19.9327C70.745 16.9987 71.2659 14.335 72.8609 11.962C74.456 9.58894 76.6895 8.12396 79.5616 7.5875C82.4125 7.05018 85.0346 7.58976 87.3847 9.22505C89.7355 10.8603 91.1988 13.1351 91.7525 16.0895L92.0025 17.4733L75.6803 20.5659C76.311 22.1502 77.2666 23.3174 78.5894 24.0489C79.8917 24.7796 81.2968 25.002 82.7842 24.7154C84.6236 24.3615 86.006 23.6401 86.9344 22.5103C87.3635 22.0567 87.714 21.5178 87.9656 20.8927L92.3039 20.0688C92.001 21.4502 91.4987 22.6797 90.8399 23.7388C89.0934 26.2899 86.6504 27.8692 83.5094 28.4765C80.6177 28.9916 78.0175 28.4325 75.6667 26.7972ZM75.2536 17.0224L87.1006 15.076C86.6406 13.8064 85.8429 12.7892 84.6652 12.0227C83.5071 11.2776 82.0824 11.0338 80.3903 11.3119C78.9663 11.5396 77.7713 12.1868 76.8058 13.2126C75.8616 14.2393 75.3371 15.5089 75.2536 17.0224Z" fill="white"/>
<path d="M93.8528 28.2704V7.85032H98.0514V10.8611H98.2561C98.5424 10.3081 98.973 9.77565 99.5463 9.26355C100.775 8.19857 102.208 7.66602 103.867 7.66602C104.667 7.66602 105.465 7.66602 106.263 7.66602C105.874 8.99734 105.465 10.3286 105.076 11.6803C104.605 11.6803 104.134 11.6803 103.663 11.6803C102.024 11.6803 100.693 12.1924 99.6279 13.2165C98.5628 14.2406 98.0514 15.5923 98.0514 17.2719V28.2909H93.8528V28.2704Z" fill="white"/>
<path fill-rule="evenodd" clip-rule="evenodd" d="M14.0077 4.32354C8.58113 4.32354 4.19219 8.70855 4.19219 14.1053C4.19219 19.5021 8.58113 23.8871 14.0077 23.8871C17.4723 23.8871 20.5186 22.0982 22.2657 19.3955H26.9761C24.8863 24.4892 19.8678 28.0793 14.0077 28.0793C6.27703 28.0793 0 21.8285 0 14.1053C0 6.38211 6.27703 0.131348 14.0077 0.131348C19.8679 0.131348 24.8864 3.72148 26.9761 8.81522H22.2658C20.5187 6.11246 17.4724 4.32354 14.0077 4.32354Z" fill="white"/>
<path fill-rule="evenodd" clip-rule="evenodd" d="M106.901 14.1053C106.901 6.3877 113.157 0.131348 120.874 0.131348H128.161V4.32354H120.874C115.472 4.32354 111.092 8.70296 111.092 14.1053C111.092 19.5077 115.472 23.8871 120.874 23.8871H128.161V28.0793H120.874C113.157 28.0793 106.901 21.8229 106.901 14.1053Z" fill="white"/>
<path fill-rule="evenodd" clip-rule="evenodd" d="M128.162 16.201H109.197V12.0088H128.162V16.201Z" fill="white"/>
<path fill-rule="evenodd" clip-rule="evenodd" d="M135.05 23.8871H141.039C146.441 23.8871 150.82 19.5076 150.82 14.1053C150.82 8.70297 146.441 4.32353 141.039 4.32353H135.05V23.8871ZM130.858 28.0793V0.131348L141.039 0.131349C148.756 0.131349 155.013 6.3877 155.013 14.1053C155.013 21.8229 148.756 28.0793 141.039 28.0793H130.858Z" fill="white"/>
</svg>
